# xmcd
#
# Track frame offsets: 
#        150
#        21347
#        41062
#        64552
#        85594
#        109407
#        125481
#        147923
#        171309
#        190693
#        212219
#        231798
#
# Disc length: 3398 seconds
#
# Revision: 0
# Processed by: cddbd v1.5.2PL0 Copyright (c) Steve Scherf et al.
# Submitted via: ExactAudioCopy v0.99pb5
#
DISCID=a90d440c
DTITLE=Various Artist - Single Quoc An - Hat Cho Moi Nguoi
DYEAR=2005
DGENRE=Viet Nam
TTITLE0=HatChoMoiNguoi6
TTITLE1=HatChoMoiNguoi4
TTITLE2=Techno1
TTITLE3=My Tam - KhungTroiMongMo
TTITLE4=Tuan Luc - BuocChanPhieuDu
TTITLE5=Hong Ngoc - TinhNhuGiacMo
TTITLE6=Quang Ha - DinhMenh
TTITLE7=My Tam - AnhSaoBuon
TTITLE8=Lam Truong_Thanh ThaoMaiLaGiacMo
TTITLE9=Uyen Thanh - BietYeuTuDay
TTITLE10=Nguyen Phi Hung - VangCha
TTITLE11=Doan Trang - TraiTimBuon
EXTD=
EXTT0=
EXTT1=
EXTT2=
EXTT3=
EXTT4=
EXTT5=
EXTT6=
EXTT7=
EXTT8=
EXTT9=
EXTT10=
EXTT11=
PLAYORDER=
